<svg width="130" height="20" viewBox="0 0 130 20" fill="none" xmlns="http://www.w3.org/2000/svg">
<path d="M8.79883 11.3086C8.79883 11.0352 8.75651 10.791 8.67188 10.5762C8.59375 10.3548 8.44727 10.1562 8.23242 9.98047C8.02409 9.79818 7.72786 9.6224 7.34375 9.45312C6.96615 9.27734 6.47786 9.09505 5.87891 8.90625C5.21484 8.69792 4.59635 8.46354 4.02344 8.20312C3.45052 7.94271 2.94596 7.63997 2.50977 7.29492C2.08008 6.94987 1.74479 6.55273 1.50391 6.10352C1.26302 5.64779 1.14258 5.12044 1.14258 4.52148C1.14258 3.93555 1.26628 3.40169 1.51367 2.91992C1.76758 2.43815 2.12565 2.02474 2.58789 1.67969C3.05013 1.32812 3.59375 1.05794 4.21875 0.869141C4.85026 0.680339 5.54688 0.585938 6.30859 0.585938C7.36328 0.585938 8.27474 0.777995 9.04297 1.16211C9.81771 1.54622 10.4167 2.06706 10.8398 2.72461C11.263 3.38216 11.4746 4.12109 11.4746 4.94141H8.79883C8.79883 4.4987 8.70443 4.10807 8.51562 3.76953C8.33333 3.43099 8.05339 3.16406 7.67578 2.96875C7.30469 2.77344 6.83594 2.67578 6.26953 2.67578C5.72266 2.67578 5.26693 2.75716 4.90234 2.91992C4.54427 3.08268 4.27409 3.30404 4.0918 3.58398C3.91602 3.86393 3.82812 4.17643 3.82812 4.52148C3.82812 4.7819 3.88997 5.01628 4.01367 5.22461C4.13737 5.42643 4.32292 5.61849 4.57031 5.80078C4.81771 5.97656 5.1237 6.14258 5.48828 6.29883C5.85938 6.44857 6.28906 6.59831 6.77734 6.74805C7.55859 6.98242 8.24219 7.24284 8.82812 7.5293C9.42057 7.81576 9.91211 8.14128 10.3027 8.50586C10.6999 8.87044 10.9961 9.2806 11.1914 9.73633C11.3932 10.1921 11.4941 10.7096 11.4941 11.2891C11.4941 11.901 11.3737 12.4479 11.1328 12.9297C10.8919 13.4115 10.5469 13.8216 10.0977 14.1602C9.64844 14.4987 9.10807 14.7559 8.47656 14.9316C7.85156 15.1074 7.15169 15.1953 6.37695 15.1953C5.68685 15.1953 5.00326 15.1042 4.32617 14.9219C3.6556 14.7331 3.04688 14.4531 2.5 14.082C1.95312 13.7044 1.51693 13.2292 1.19141 12.6562C0.865885 12.0768 0.703125 11.3997 0.703125 10.625H3.39844C3.39844 11.0742 3.47005 11.4583 3.61328 11.7773C3.76302 12.0898 3.97135 12.347 4.23828 12.5488C4.51172 12.7441 4.83073 12.8874 5.19531 12.9785C5.5599 13.0697 5.95378 13.1152 6.37695 13.1152C6.92383 13.1152 7.37305 13.0404 7.72461 12.8906C8.08268 12.7344 8.34961 12.5195 8.52539 12.2461C8.70768 11.9727 8.79883 11.6602 8.79883 11.3086ZM17.7473 6.46484V19.0625H15.1594V4.43359H17.552L17.7473 6.46484ZM24.5344 9.60938V9.81445C24.5344 10.5827 24.4432 11.2956 24.2609 11.9531C24.0852 12.6042 23.8247 13.1738 23.4797 13.6621C23.1346 14.1439 22.7049 14.5215 22.1906 14.7949C21.6828 15.0618 21.0969 15.1953 20.4328 15.1953C19.7818 15.1953 19.2154 15.0716 18.7336 14.8242C18.2518 14.5703 17.8449 14.2122 17.5129 13.75C17.1809 13.2878 16.9139 12.7507 16.7121 12.1387C16.5168 11.5202 16.3703 10.8464 16.2727 10.1172V9.46289C16.3703 8.68815 16.5168 7.98503 16.7121 7.35352C16.9139 6.71549 17.1809 6.16536 17.5129 5.70312C17.8449 5.23438 18.2486 4.87305 18.7238 4.61914C19.2056 4.36523 19.7688 4.23828 20.4133 4.23828C21.0839 4.23828 21.673 4.36523 22.1809 4.61914C22.6952 4.87305 23.1281 5.23763 23.4797 5.71289C23.8313 6.18815 24.0949 6.75456 24.2707 7.41211C24.4465 8.06966 24.5344 8.80208 24.5344 9.60938ZM21.9465 9.81445V9.60938C21.9465 9.14062 21.9042 8.70768 21.8195 8.31055C21.7349 7.9069 21.6047 7.55534 21.4289 7.25586C21.2531 6.94987 21.0253 6.71224 20.7453 6.54297C20.4654 6.3737 20.1268 6.28906 19.7297 6.28906C19.3326 6.28906 18.9908 6.35417 18.7043 6.48438C18.4178 6.61458 18.1835 6.80013 18.0012 7.04102C17.8189 7.2819 17.6757 7.56836 17.5715 7.90039C17.4738 8.22591 17.4087 8.58724 17.3762 8.98438V10.6055C17.4348 11.0872 17.5487 11.5202 17.718 11.9043C17.8872 12.2884 18.1346 12.5944 18.4602 12.8223C18.7922 13.0501 19.2219 13.1641 19.7492 13.1641C20.1464 13.1641 20.4849 13.0762 20.7648 12.9004C21.0448 12.7246 21.2727 12.4837 21.4484 12.1777C21.6242 11.8652 21.7512 11.5072 21.8293 11.1035C21.9074 10.6999 21.9465 10.2702 21.9465 9.81445ZM30.9535 4.43359V15H28.3656V4.43359H30.9535ZM28.1898 1.66992C28.1898 1.28581 28.3201 0.966797 28.5805 0.712891C28.8474 0.458984 29.2055 0.332031 29.6547 0.332031C30.1039 0.332031 30.4587 0.458984 30.7191 0.712891C30.9861 0.966797 31.1195 1.28581 31.1195 1.66992C31.1195 2.04753 30.9861 2.36328 30.7191 2.61719C30.4587 2.87109 30.1039 2.99805 29.6547 2.99805C29.2055 2.99805 28.8474 2.87109 28.5805 2.61719C28.3201 2.36328 28.1898 2.04753 28.1898 1.66992ZM37.7438 6.68945V15H35.1656V4.43359H37.5875L37.7438 6.68945ZM37.3336 9.33594H36.5719C36.5784 8.56771 36.6826 7.87109 36.8844 7.24609C37.0862 6.62109 37.3694 6.08398 37.734 5.63477C38.1051 5.18555 38.5445 4.84049 39.0523 4.59961C39.5602 4.35872 40.1266 4.23828 40.7516 4.23828C41.2594 4.23828 41.7184 4.3099 42.1285 4.45312C42.5387 4.59635 42.8902 4.82422 43.1832 5.13672C43.4827 5.44922 43.7105 5.85938 43.8668 6.36719C44.0296 6.86849 44.1109 7.48698 44.1109 8.22266V15H41.5133V8.20312C41.5133 7.72135 41.4417 7.34049 41.2984 7.06055C41.1617 6.7806 40.9599 6.58203 40.693 6.46484C40.4326 6.34766 40.1103 6.28906 39.7262 6.28906C39.329 6.28906 38.9807 6.37044 38.6813 6.5332C38.3883 6.68945 38.1409 6.90755 37.9391 7.1875C37.7438 7.46745 37.594 7.78971 37.4898 8.1543C37.3857 8.51888 37.3336 8.91276 37.3336 9.33594Z" fill="#F3F5FA"/>
<path d="M52.6297 15H49.5633L49.5828 12.8906H52.6297C53.4565 12.8906 54.1499 12.7083 54.7098 12.3438C55.2697 11.9727 55.6928 11.4421 55.9793 10.752C56.2658 10.0553 56.409 9.22201 56.409 8.25195V7.51953C56.409 6.77083 56.3276 6.11003 56.1648 5.53711C56.0021 4.96419 55.7612 4.48242 55.4422 4.0918C55.1297 3.70117 54.7423 3.40495 54.2801 3.20312C53.8178 3.0013 53.2872 2.90039 52.6883 2.90039H49.5047V0.78125H52.6883C53.6388 0.78125 54.5047 0.940755 55.2859 1.25977C56.0737 1.57878 56.754 2.03776 57.327 2.63672C57.9064 3.22917 58.3491 3.9388 58.6551 4.76562C58.9676 5.59245 59.1238 6.51693 59.1238 7.53906V8.25195C59.1238 9.26758 58.9676 10.1921 58.6551 11.0254C58.3491 11.8522 57.9064 12.5618 57.327 13.1543C56.754 13.7467 56.0704 14.2025 55.2762 14.5215C54.4819 14.8405 53.5997 15 52.6297 15ZM51.0672 0.78125V15H48.3816V0.78125H51.0672ZM67.7598 15.1953C66.959 15.1953 66.2396 15.0651 65.6016 14.8047C64.9635 14.5443 64.4199 14.1829 63.9707 13.7207C63.528 13.252 63.1862 12.7083 62.9453 12.0898C62.7109 11.4648 62.5938 10.7943 62.5938 10.0781V9.6875C62.5938 8.8737 62.7109 8.13477 62.9453 7.4707C63.1797 6.80013 63.5117 6.22396 63.9414 5.74219C64.3711 5.26042 64.8854 4.88932 65.4844 4.62891C66.0833 4.36849 66.7441 4.23828 67.4668 4.23828C68.2155 4.23828 68.8763 4.36523 69.4492 4.61914C70.0221 4.86654 70.5007 5.2181 70.8848 5.67383C71.2689 6.12956 71.5586 6.67643 71.7539 7.31445C71.9492 7.94596 72.0469 8.64583 72.0469 9.41406V10.498H63.7656V8.7207H69.5078V8.52539C69.4948 8.11523 69.4167 7.74089 69.2734 7.40234C69.1302 7.05729 68.9089 6.78385 68.6094 6.58203C68.3099 6.3737 67.9225 6.26953 67.4473 6.26953C67.0632 6.26953 66.7279 6.35417 66.4414 6.52344C66.1615 6.6862 65.9271 6.92057 65.7383 7.22656C65.556 7.52604 65.4193 7.88411 65.3281 8.30078C65.237 8.71745 65.1914 9.17969 65.1914 9.6875V10.0781C65.1914 10.5208 65.25 10.931 65.3672 11.3086C65.4909 11.6862 65.6699 12.015 65.9043 12.2949C66.1452 12.5684 66.4316 12.7832 66.7637 12.9395C67.1022 13.0892 67.4863 13.1641 67.916 13.1641C68.4564 13.1641 68.9447 13.0599 69.3809 12.8516C69.8236 12.6367 70.2077 12.321 70.5332 11.9043L71.832 13.252C71.6107 13.5775 71.3112 13.89 70.9336 14.1895C70.5625 14.4889 70.1133 14.7331 69.5859 14.9219C69.0586 15.1042 68.4499 15.1953 67.7598 15.1953ZM81.3859 12.1094C81.3859 11.888 81.3273 11.6895 81.2102 11.5137C81.093 11.3379 80.8716 11.1784 80.5461 11.0352C80.2271 10.8854 79.7583 10.7454 79.1398 10.6152C78.593 10.498 78.0884 10.3516 77.6262 10.1758C77.1639 10 76.7668 9.78841 76.4348 9.54102C76.1027 9.28711 75.8423 8.99089 75.6535 8.65234C75.4712 8.30729 75.3801 7.91016 75.3801 7.46094C75.3801 7.02474 75.4745 6.61458 75.6633 6.23047C75.8521 5.83984 76.1255 5.49805 76.4836 5.20508C76.8417 4.9056 77.2779 4.67122 77.7922 4.50195C78.3065 4.32617 78.8859 4.23828 79.5305 4.23828C80.4289 4.23828 81.2004 4.38477 81.8449 4.67773C82.496 4.9707 82.994 5.37435 83.3391 5.88867C83.6841 6.39648 83.8566 6.9694 83.8566 7.60742H81.2785C81.2785 7.32747 81.2134 7.07357 81.0832 6.8457C80.9595 6.61784 80.7675 6.43555 80.507 6.29883C80.2466 6.1556 79.9178 6.08398 79.5207 6.08398C79.1626 6.08398 78.8599 6.14258 78.6125 6.25977C78.3716 6.37695 78.1893 6.52995 78.0656 6.71875C77.9419 6.90755 77.8801 7.11589 77.8801 7.34375C77.8801 7.51302 77.9126 7.66602 77.9777 7.80273C78.0494 7.93294 78.1633 8.05339 78.3195 8.16406C78.4758 8.27474 78.6874 8.37565 78.9543 8.4668C79.2277 8.55794 79.563 8.64583 79.9602 8.73047C80.7479 8.88672 81.4348 9.09505 82.0207 9.35547C82.6132 9.60938 83.0754 9.94792 83.4074 10.3711C83.7395 10.7943 83.9055 11.3346 83.9055 11.9922C83.9055 12.4609 83.8046 12.8906 83.6027 13.2812C83.4009 13.6654 83.1079 14.0007 82.7238 14.2871C82.3397 14.5736 81.8807 14.7982 81.3469 14.9609C80.813 15.1172 80.2108 15.1953 79.5402 15.1953C78.5702 15.1953 77.7499 15.0228 77.0793 14.6777C76.4087 14.3262 75.9009 13.8835 75.5559 13.3496C75.2108 12.8092 75.0383 12.2493 75.0383 11.6699H77.509C77.5285 12.0801 77.6392 12.4089 77.841 12.6562C78.0428 12.9036 78.2967 13.0827 78.6027 13.1934C78.9152 13.2975 79.244 13.3496 79.5891 13.3496C79.9797 13.3496 80.3085 13.2975 80.5754 13.1934C80.8423 13.0827 81.0441 12.9362 81.1809 12.7539C81.3176 12.5651 81.3859 12.3503 81.3859 12.1094ZM90.4027 4.43359V15H87.8148V4.43359H90.4027ZM87.6391 1.66992C87.6391 1.28581 87.7693 0.966797 88.0297 0.712891C88.2966 0.458984 88.6547 0.332031 89.1039 0.332031C89.5531 0.332031 89.9079 0.458984 90.1684 0.712891C90.4353 0.966797 90.5687 1.28581 90.5687 1.66992C90.5687 2.04753 90.4353 2.36328 90.1684 2.61719C89.9079 2.87109 89.5531 2.99805 89.1039 2.99805C88.6547 2.99805 88.2966 2.87109 88.0297 2.61719C87.7693 2.36328 87.6391 2.04753 87.6391 1.66992ZM101.382 4.43359H103.726V14.6777C103.726 15.6348 103.518 16.4453 103.101 17.1094C102.691 17.7799 102.115 18.2878 101.373 18.6328C100.63 18.9844 99.7678 19.1602 98.7848 19.1602C98.3616 19.1602 97.9026 19.1016 97.4078 18.9844C96.9195 18.8672 96.4475 18.6816 95.9918 18.4277C95.5426 18.1803 95.1682 17.8581 94.8688 17.4609L96.0309 15.9375C96.3824 16.3477 96.7796 16.6569 97.2223 16.8652C97.665 17.0801 98.1435 17.1875 98.6578 17.1875C99.1786 17.1875 99.6214 17.0898 99.9859 16.8945C100.357 16.7057 100.64 16.4258 100.836 16.0547C101.037 15.6901 101.138 15.2409 101.138 14.707V6.8457L101.382 4.43359ZM94.2438 9.84375V9.63867C94.2438 8.83138 94.3414 8.09896 94.5367 7.44141C94.732 6.77734 95.012 6.20768 95.3766 5.73242C95.7477 5.25716 96.1936 4.88932 96.7145 4.62891C97.2418 4.36849 97.8342 4.23828 98.4918 4.23828C99.1884 4.23828 99.7744 4.36523 100.25 4.61914C100.731 4.87305 101.129 5.23438 101.441 5.70312C101.76 6.17188 102.007 6.72852 102.183 7.37305C102.365 8.01107 102.505 8.71419 102.603 9.48242V10.0391C102.512 10.7878 102.365 11.4746 102.164 12.0996C101.968 12.7246 101.708 13.2715 101.382 13.7402C101.057 14.2025 100.653 14.5605 100.171 14.8145C99.6897 15.0684 99.1233 15.1953 98.4723 15.1953C97.8212 15.1953 97.2353 15.0618 96.7145 14.7949C96.1936 14.528 95.7477 14.1536 95.3766 13.6719C95.012 13.1901 94.732 12.6237 94.5367 11.9727C94.3414 11.3216 94.2438 10.612 94.2438 9.84375ZM96.8219 9.63867V9.84375C96.8219 10.2995 96.8674 10.7259 96.9586 11.123C97.0497 11.5202 97.1897 11.8717 97.3785 12.1777C97.5673 12.4772 97.8049 12.7116 98.0914 12.8809C98.3779 13.0501 98.7197 13.1348 99.1168 13.1348C99.6507 13.1348 100.087 13.0241 100.425 12.8027C100.77 12.5749 101.031 12.2656 101.207 11.875C101.389 11.4779 101.506 11.0319 101.558 10.5371V9.00391C101.526 8.61328 101.454 8.25195 101.343 7.91992C101.239 7.58789 101.093 7.30143 100.904 7.06055C100.715 6.81966 100.474 6.63086 100.181 6.49414C99.8883 6.35742 99.54 6.28906 99.1363 6.28906C98.7457 6.28906 98.4039 6.37695 98.1109 6.55273C97.818 6.72201 97.5771 6.95964 97.3883 7.26562C97.1995 7.57161 97.0563 7.92643 96.9586 8.33008C96.8674 8.73372 96.8219 9.16992 96.8219 9.63867ZM110.38 6.68945V15H107.802V4.43359H110.223L110.38 6.68945ZM109.97 9.33594H109.208C109.214 8.56771 109.318 7.87109 109.52 7.24609C109.722 6.62109 110.005 6.08398 110.37 5.63477C110.741 5.18555 111.18 4.84049 111.688 4.59961C112.196 4.35872 112.762 4.23828 113.387 4.23828C113.895 4.23828 114.354 4.3099 114.764 4.45312C115.175 4.59635 115.526 4.82422 115.819 5.13672C116.119 5.44922 116.346 5.85938 116.503 6.36719C116.665 6.86849 116.747 7.48698 116.747 8.22266V15H114.149V8.20312C114.149 7.72135 114.078 7.34049 113.934 7.06055C113.798 6.7806 113.596 6.58203 113.329 6.46484C113.068 6.34766 112.746 6.28906 112.362 6.28906C111.965 6.28906 111.617 6.37044 111.317 6.5332C111.024 6.68945 110.777 6.90755 110.575 7.1875C110.38 7.46745 110.23 7.78971 110.126 8.1543C110.022 8.51888 109.97 8.91276 109.97 9.33594ZM126.633 12.1094C126.633 11.888 126.574 11.6895 126.457 11.5137C126.34 11.3379 126.118 11.1784 125.793 11.0352C125.474 10.8854 125.005 10.7454 124.387 10.6152C123.84 10.498 123.335 10.3516 122.873 10.1758C122.411 10 122.014 9.78841 121.682 9.54102C121.35 9.28711 121.089 8.99089 120.9 8.65234C120.718 8.30729 120.627 7.91016 120.627 7.46094C120.627 7.02474 120.721 6.61458 120.91 6.23047C121.099 5.83984 121.372 5.49805 121.73 5.20508C122.089 4.9056 122.525 4.67122 123.039 4.50195C123.553 4.32617 124.133 4.23828 124.777 4.23828C125.676 4.23828 126.447 4.38477 127.092 4.67773C127.743 4.9707 128.241 5.37435 128.586 5.88867C128.931 6.39648 129.104 6.9694 129.104 7.60742H126.525C126.525 7.32747 126.46 7.07357 126.33 6.8457C126.206 6.61784 126.014 6.43555 125.754 6.29883C125.493 6.1556 125.165 6.08398 124.768 6.08398C124.41 6.08398 124.107 6.14258 123.859 6.25977C123.618 6.37695 123.436 6.52995 123.312 6.71875C123.189 6.90755 123.127 7.11589 123.127 7.34375C123.127 7.51302 123.16 7.66602 123.225 7.80273C123.296 7.93294 123.41 8.05339 123.566 8.16406C123.723 8.27474 123.934 8.37565 124.201 8.4668C124.475 8.55794 124.81 8.64583 125.207 8.73047C125.995 8.88672 126.682 9.09505 127.268 9.35547C127.86 9.60938 128.322 9.94792 128.654 10.3711C128.986 10.7943 129.152 11.3346 129.152 11.9922C129.152 12.4609 129.051 12.8906 128.85 13.2812C128.648 13.6654 128.355 14.0007 127.971 14.2871C127.587 14.5736 127.128 14.7982 126.594 14.9609C126.06 15.1172 125.458 15.1953 124.787 15.1953C123.817 15.1953 122.997 15.0228 122.326 14.6777C121.656 14.3262 121.148 13.8835 120.803 13.3496C120.458 12.8092 120.285 12.2493 120.285 11.6699H122.756C122.775 12.0801 122.886 12.4089 123.088 12.6562C123.29 12.9036 123.544 13.0827 123.85 13.1934C124.162 13.2975 124.491 13.3496 124.836 13.3496C125.227 13.3496 125.555 13.2975 125.822 13.1934C126.089 13.0827 126.291 12.9362 126.428 12.7539C126.564 12.5651 126.633 12.3503 126.633 12.1094Z" fill="#E2B93B"/>
</svg>
