<svg width="33" height="28" viewBox="0 0 33 28" fill="none" xmlns="http://www.w3.org/2000/svg">
<g id="People">
<path d="M23.2927 15.8832C25.2855 17.4332 26.6818 19.5332 26.6818 22.3332V27.3332H32.5V22.3332C32.5 18.6998 27.3073 16.5498 23.2927 15.8832Z" fill="#F4C20D"/>
<path d="M20.8636 13.9998C24.0782 13.9998 26.6818 11.0165 26.6818 7.33317C26.6818 3.64984 24.0782 0.666504 20.8636 0.666504C20.18 0.666504 19.54 0.83317 18.9291 1.0665C20.1364 2.78317 20.8636 4.9665 20.8636 7.33317C20.8636 9.69984 20.1364 11.8832 18.9291 13.5998C19.54 13.8332 20.18 13.9998 20.8636 13.9998Z" fill="#F4C20D"/>
<path d="M12.1364 13.9998C15.3509 13.9998 17.9545 11.0165 17.9545 7.33317C17.9545 3.64984 15.3509 0.666504 12.1364 0.666504C8.92182 0.666504 6.31818 3.64984 6.31818 7.33317C6.31818 11.0165 8.92182 13.9998 12.1364 13.9998ZM12.1364 3.99984C13.7364 3.99984 15.0455 5.49984 15.0455 7.33317C15.0455 9.1665 13.7364 10.6665 12.1364 10.6665C10.5364 10.6665 9.22727 9.1665 9.22727 7.33317C9.22727 5.49984 10.5364 3.99984 12.1364 3.99984Z" fill="#F4C20D"/>
<path d="M12.1364 15.6665C8.25273 15.6665 0.5 17.8998 0.5 22.3332V27.3332H23.7727V22.3332C23.7727 17.8998 16.02 15.6665 12.1364 15.6665ZM20.8636 23.9998H3.40909V22.3498C3.7 21.1498 8.20909 18.9998 12.1364 18.9998C16.0636 18.9998 20.5727 21.1498 20.8636 22.3332V23.9998Z" fill="#F4C20D"/>
</g>
</svg>
