<svg width="118" height="39" viewBox="0 0 118 39" fill="none" xmlns="http://www.w3.org/2000/svg">
<path d="M17.3516 22.6758C17.3516 22.0898 17.2604 21.569 17.0781 21.1133C16.9089 20.6576 16.6029 20.2409 16.1602 19.8633C15.7174 19.4857 15.0924 19.1211 14.2852 18.7695C13.4909 18.4049 12.4753 18.0339 11.2383 17.6562C9.88411 17.2396 8.63411 16.7773 7.48828 16.2695C6.35547 15.7487 5.36589 15.1497 4.51953 14.4727C3.67318 13.7826 3.01562 12.9948 2.54688 12.1094C2.07812 11.2109 1.84375 10.1758 1.84375 9.00391C1.84375 7.84505 2.08464 6.79036 2.56641 5.83984C3.0612 4.88932 3.75781 4.06901 4.65625 3.37891C5.56771 2.67578 6.64193 2.13542 7.87891 1.75781C9.11589 1.36719 10.4831 1.17188 11.9805 1.17188C14.0898 1.17188 15.9062 1.5625 17.4297 2.34375C18.9661 3.125 20.1445 4.17318 20.9648 5.48828C21.7982 6.80339 22.2148 8.25521 22.2148 9.84375H17.3516C17.3516 8.90625 17.1497 8.07943 16.7461 7.36328C16.3555 6.63411 15.7565 6.0612 14.9492 5.64453C14.1549 5.22786 13.1458 5.01953 11.9219 5.01953C10.763 5.01953 9.79948 5.19531 9.03125 5.54688C8.26302 5.89844 7.6901 6.3737 7.3125 6.97266C6.9349 7.57161 6.74609 8.2487 6.74609 9.00391C6.74609 9.53776 6.86979 10.026 7.11719 10.4688C7.36458 10.8984 7.74219 11.3021 8.25 11.6797C8.75781 12.0443 9.39583 12.3893 10.1641 12.7148C10.9323 13.0404 11.8372 13.3529 12.8789 13.6523C14.4544 14.1211 15.8281 14.6419 17 15.2148C18.1719 15.7747 19.1484 16.4128 19.9297 17.1289C20.7109 17.8451 21.2969 18.6589 21.6875 19.5703C22.0781 20.4688 22.2734 21.4909 22.2734 22.6367C22.2734 23.8346 22.0326 24.9154 21.5508 25.8789C21.069 26.8294 20.3789 27.6432 19.4805 28.3203C18.5951 28.9844 17.5273 29.4987 16.2773 29.8633C15.0404 30.2148 13.6602 30.3906 12.1367 30.3906C10.7695 30.3906 9.42188 30.2083 8.09375 29.8438C6.77865 29.4792 5.58073 28.9258 4.5 28.1836C3.41927 27.4284 2.5599 26.4909 1.92188 25.3711C1.28385 24.2383 0.964844 22.9167 0.964844 21.4062H5.86719C5.86719 22.3307 6.02344 23.1185 6.33594 23.7695C6.66146 24.4206 7.11068 24.9544 7.68359 25.3711C8.25651 25.7747 8.92057 26.0742 9.67578 26.2695C10.444 26.4648 11.2643 26.5625 12.1367 26.5625C13.2826 26.5625 14.2396 26.3997 15.0078 26.0742C15.7891 25.7487 16.375 25.293 16.7656 24.707C17.1562 24.1211 17.3516 23.444 17.3516 22.6758ZM34.4672 12.9297V38.125H29.7602V8.86719H34.0961L34.4672 12.9297ZM48.2367 19.2383V19.6484C48.2367 21.1849 48.0544 22.6107 47.6898 23.9258C47.3383 25.2279 46.8109 26.3672 46.1078 27.3438C45.4177 28.3073 44.5648 29.056 43.5492 29.5898C42.5336 30.1237 41.3617 30.3906 40.0336 30.3906C38.7185 30.3906 37.5661 30.1497 36.5766 29.668C35.6 29.1732 34.7732 28.4766 34.0961 27.5781C33.419 26.6797 32.8721 25.625 32.4555 24.4141C32.0518 23.1901 31.7654 21.849 31.5961 20.3906V18.8086C31.7654 17.2591 32.0518 15.8529 32.4555 14.5898C32.8721 13.3268 33.419 12.2396 34.0961 11.3281C34.7732 10.4167 35.6 9.71354 36.5766 9.21875C37.5531 8.72396 38.6924 8.47656 39.9945 8.47656C41.3227 8.47656 42.501 8.73698 43.5297 9.25781C44.5583 9.76562 45.4242 10.4948 46.1273 11.4453C46.8305 12.3828 47.3578 13.5156 47.7094 14.8438C48.0609 16.1589 48.2367 17.6237 48.2367 19.2383ZM43.5297 19.6484V19.2383C43.5297 18.2617 43.4385 17.3568 43.2563 16.5234C43.074 15.6771 42.7875 14.9349 42.3969 14.2969C42.0063 13.6589 41.5049 13.1641 40.893 12.8125C40.294 12.4479 39.5714 12.2656 38.725 12.2656C37.8917 12.2656 37.1755 12.4089 36.5766 12.6953C35.9776 12.9688 35.4763 13.3529 35.0727 13.8477C34.669 14.3424 34.3565 14.9219 34.1352 15.5859C33.9138 16.237 33.7576 16.9466 33.6664 17.7148V21.5039C33.8227 22.4414 34.0896 23.3008 34.4672 24.082C34.8448 24.8633 35.3786 25.4883 36.0688 25.957C36.7719 26.4128 37.6703 26.6406 38.7641 26.6406C39.6104 26.6406 40.3331 26.4583 40.932 26.0938C41.531 25.7292 42.0193 25.2279 42.3969 24.5898C42.7875 23.9388 43.074 23.1901 43.2563 22.3438C43.4385 21.4974 43.5297 20.599 43.5297 19.6484ZM60.8797 8.86719V30H56.1531V8.86719H60.8797ZM55.8406 3.32031C55.8406 2.60417 56.075 2.01172 56.5438 1.54297C57.0255 1.0612 57.6896 0.820312 58.5359 0.820312C59.3693 0.820312 60.0268 1.0612 60.5086 1.54297C60.9904 2.01172 61.2313 2.60417 61.2313 3.32031C61.2313 4.02344 60.9904 4.60938 60.5086 5.07812C60.0268 5.54688 59.3693 5.78125 58.5359 5.78125C57.6896 5.78125 57.0255 5.54688 56.5438 5.07812C56.075 4.60938 55.8406 4.02344 55.8406 3.32031ZM74.3039 13.3789V30H69.5969V8.86719H74.0305L74.3039 13.3789ZM73.4641 18.6523L71.9406 18.6328C71.9536 17.1354 72.162 15.7617 72.5656 14.5117C72.9823 13.2617 73.5552 12.1875 74.2844 11.2891C75.0266 10.3906 75.912 9.70052 76.9406 9.21875C77.9693 8.72396 79.1151 8.47656 80.3781 8.47656C81.3938 8.47656 82.3117 8.61979 83.132 8.90625C83.9654 9.17969 84.675 9.62891 85.2609 10.2539C85.8599 10.8789 86.3156 11.6927 86.6281 12.6953C86.9406 13.6849 87.0969 14.9023 87.0969 16.3477V30H82.3703V16.3281C82.3703 15.3125 82.2206 14.5117 81.9211 13.9258C81.6346 13.3268 81.2115 12.9036 80.6516 12.6562C80.1047 12.3958 79.4211 12.2656 78.6008 12.2656C77.7935 12.2656 77.0708 12.4349 76.4328 12.7734C75.7948 13.112 75.2544 13.5742 74.8117 14.1602C74.382 14.7461 74.05 15.4232 73.8156 16.1914C73.5813 16.9596 73.4641 17.7799 73.4641 18.6523Z" fill="#F3F5FA"/>
<path d="M104.232 30H98.1578L98.1969 26.1133H104.232C105.99 26.1133 107.461 25.7292 108.646 24.9609C109.844 24.1927 110.742 23.0924 111.341 21.6602C111.953 20.2279 112.259 18.5221 112.259 16.543V15C112.259 13.4635 112.084 12.1029 111.732 10.918C111.393 9.73307 110.886 8.73698 110.209 7.92969C109.545 7.1224 108.724 6.51042 107.748 6.09375C106.784 5.67708 105.671 5.46875 104.408 5.46875H98.0406V1.5625H104.408C106.296 1.5625 108.021 1.88151 109.584 2.51953C111.146 3.14453 112.494 4.04948 113.627 5.23438C114.772 6.41927 115.651 7.83854 116.263 9.49219C116.875 11.1458 117.181 12.9948 117.181 15.0391V16.543C117.181 18.5872 116.875 20.4362 116.263 22.0898C115.651 23.7435 114.772 25.1628 113.627 26.3477C112.481 27.5195 111.114 28.4245 109.525 29.0625C107.949 29.6875 106.185 30 104.232 30ZM100.873 1.5625V30H95.9703V1.5625H100.873Z" fill="#101010"/>
</svg>
